<?xml version="1.0" standalone="no"?><!DOCTYPE svg PUBLIC "-//W3C//DTD SVG 1.1//EN" "http://www.w3.org/Graphics/SVG/1.1/DTD/svg11.dtd"><svg t="1705563759113" class="icon" viewBox="0 0 1024 1024" version="1.1" xmlns="http://www.w3.org/2000/svg" p-id="11052" xmlns:xlink="http://www.w3.org/1999/xlink" width="200" height="200"><path d="M533.942857 0c-222.281143 0-402.285714 25.161143-402.285714 201.069714v502.637715c0 44.251429 19.602286 83.968 50.322286 111.616v89.453714c0 27.648 22.601143 50.249143 50.249142 50.249143h50.322286a50.395429 50.395429 0 0 0 50.249143-50.249143v-50.249143h402.285714v50.249143c0 27.648 22.601143 50.249143 50.322286 50.249143h50.249143a50.468571 50.468571 0 0 0 50.322286-50.249143v-89.453714c30.646857-27.648 50.249143-67.364571 50.249142-111.616v-502.637715c0-175.908571-180.004571-201.069714-402.285714-201.069714z m-226.304 753.956571a75.337143 75.337143 0 1 1 75.410286-75.410285c0 41.764571-33.645714 75.410286-75.410286 75.410285z m452.608 0a75.337143 75.337143 0 1 1-0.146286-150.966857 75.337143 75.337143 0 0 1 0.146286 150.966857z m75.410286-301.568h-603.428572v-251.318857h603.428572v251.318857z" fill="#b0b0b0" p-id="11053"></path></svg>