<?xml version="1.0" standalone="no"?><!DOCTYPE svg PUBLIC "-//W3C//DTD SVG 1.1//EN" "http://www.w3.org/Graphics/SVG/1.1/DTD/svg11.dtd"><svg t="1709805450027" class="icon" viewBox="0 0 1110 1024" version="1.1" xmlns="http://www.w3.org/2000/svg" p-id="21242" xmlns:xlink="http://www.w3.org/1999/xlink" width="216.796875" height="200"><path d="M1110.121288 746.88064v213.14073a63.942219 63.942219 0 0 1-18.649813 46.180491 61.27796 61.27796 0 0 1-45.292405 17.761727H63.955541a61.27796 61.27796 0 0 1-45.292405-17.761727 64.830305 64.830305 0 0 1-18.649814-46.180491v-213.14073a61.27796 61.27796 0 0 1 18.649814-45.292405 61.27796 61.27796 0 0 1 45.292405-18.649814h309.942144l88.808637 88.808637a128.772524 128.772524 0 0 0 177.617275 0l88.808637-88.808637h309.942145a63.942219 63.942219 0 0 1 63.942218 63.942219z m-216.693075-379.212881a36.411541 36.411541 0 0 1-9.76895 46.180491L585.262242 710.469099a42.628146 42.628146 0 0 1-60.389874 0L226.475347 413.84825a36.411541 36.411541 0 0 1-9.76895-46.180491 39.0758 39.0758 0 0 1 39.0758-25.754505h171.40067V42.628146A39.963887 39.963887 0 0 1 444.056508 12.433209 40.851973 40.851973 0 0 1 469.811013 0h170.512584a43.516232 43.516232 0 0 1 30.194937 12.433209 43.516232 43.516232 0 0 1 12.433209 30.194937v299.285108h170.512584a39.963887 39.963887 0 0 1 39.963886 25.754505z m-52.397096 558.606328a38.187714 38.187714 0 0 0 12.43321-29.30685 42.628146 42.628146 0 0 0-42.628146-42.628146 37.299628 37.299628 0 0 0-29.306851 12.433209 39.963887 39.963887 0 0 0-13.321295 30.194937 39.0758 39.0758 0 0 0 13.321295 29.30685 38.187714 38.187714 0 0 0 29.306851 13.321296 39.963887 39.963887 0 0 0 30.194936-13.321296z m171.40067 0a41.74006 41.74006 0 0 0 12.43321-29.30685 42.628146 42.628146 0 0 0-12.43321-30.194937 39.963887 39.963887 0 0 0-30.194936-12.433209 39.0758 39.0758 0 0 0-30.194937 12.433209 42.628146 42.628146 0 0 0-12.433209 30.194937 38.187714 38.187714 0 0 0 12.433209 29.30685 40.851973 40.851973 0 0 0 60.389873 0z" fill="#b0b0b0" p-id="21243"></path></svg>