<?xml version="1.0" standalone="no"?><!DOCTYPE svg PUBLIC "-//W3C//DTD SVG 1.1//EN" "http://www.w3.org/Graphics/SVG/1.1/DTD/svg11.dtd"><svg t="1709805486509" class="icon" viewBox="0 0 1024 1024" version="1.1" xmlns="http://www.w3.org/2000/svg" p-id="23644" xmlns:xlink="http://www.w3.org/1999/xlink" width="200" height="200"><path d="M512.007575 0a511.992552 511.992552 0 1 0 511.992553 511.646143A511.646143 511.646143 0 0 0 512.007575 0zM204.396353 629.425215A57.157491 57.157491 0 0 1 188.115129 588.895358V265.695729A56.118264 56.118264 0 0 1 242.847756 209.577466h323.892447A56.464673 56.464673 0 0 1 623.897693 265.695729V311.768131a26.327087 26.327087 0 1 1-51.961355 0V265.695729a3.810499 3.810499 0 0 0-3.810499-3.810499H242.847756a4.156908 4.156908 0 0 0-4.156908 3.810499V588.895358a3.117681 3.117681 0 0 0 0 2.771272 6.235363 6.235363 0 0 0 2.771272 0h236.943779a25.980678 25.980678 0 1 1 0 51.961355H242.847756a56.464673 56.464673 0 0 1-38.451403-14.20277z m187.060878-277.127227l304.493541 304.49354a28.059132 28.059132 0 0 1-39.837039 39.837039l-304.49354-304.493541a28.059132 28.059132 0 0 1 39.837038-39.837038z m444.7892 405.298569a56.118264 56.118264 0 0 1-56.118263 56.118264h-323.892447a56.118264 56.118264 0 0 1-56.118264-56.118264v-44.686765a25.980678 25.980678 0 0 1 51.961355 0v44.686765a4.503317 4.503317 0 0 0 4.156909 4.156909h323.892447a4.156908 4.156908 0 0 0 3.810499-4.156909v-323.546037a6.581772 6.581772 0 0 0 0-3.117682 4.503317 4.503317 0 0 0-3.117681 0h-235.211734a26.327087 26.327087 0 0 1 0-52.307764h234.518916a56.811082 56.811082 0 0 1 39.490629 16.627634 55.425445 55.425445 0 0 1 16.627634 39.837039z" fill="#b0b0b0" p-id="23645"></path></svg>