<?xml version="1.0" standalone="no"?><!DOCTYPE svg PUBLIC "-//W3C//DTD SVG 1.1//EN" "http://www.w3.org/Graphics/SVG/1.1/DTD/svg11.dtd"><svg t="1709805511069" class="icon" viewBox="0 0 1024 1024" version="1.1" xmlns="http://www.w3.org/2000/svg" p-id="24745" xmlns:xlink="http://www.w3.org/1999/xlink" width="200" height="200"><path d="M512 42.666667l384 170.666666v298.666667c0 165.376-104.042667 291.2-204.416 370.730667l-11.349333 8.810666c-5.653333 4.309333-11.285333 8.448-16.853334 12.458667l-11.136 7.808c-3.669333 2.538667-7.338667 5.013333-10.965333 7.402667l-10.752 6.997333-10.56 6.613333-10.282667 6.186667-10.026666 5.76-9.664 5.333333-4.693334 2.56-9.130666 4.714667-8.704 4.309333-8.256 3.904-7.786667 3.456-7.253333 3.050667-6.698667 2.602667c-1.066667 0.426667-2.133333 0.789333-3.136 1.152l-5.824 1.962666-5.162667 1.536A46.933333 46.933333 0 0 1 512 981.333333a46.933333 46.933333 0 0 1-11.349333-1.984l-5.162667-1.536-5.824-1.962666-6.4-2.389334-6.997333-2.837333-7.530667-3.242667-8.021333-3.690666-8.490667-4.096a521.578667 521.578667 0 0 1-4.394667-2.218667l-9.130666-4.736a592.213333 592.213333 0 0 1-4.693334-2.517333l-9.685333-5.333334-10.005333-5.781333-5.12-3.050667-10.410667-6.4-10.666667-6.784-10.88-7.189333a731.733333 731.733333 0 0 1-5.482666-3.754667l-11.114667-7.808a735.146667 735.146667 0 0 1-5.610667-4.053333l-11.264-8.426667a729.344 729.344 0 0 1-5.674666-4.352l-11.349334-9.002666a715.776 715.776 0 0 1-5.696-4.650667l-11.370666-9.6c-90.858667-78.293333-178.048-194.197333-181.546667-342.613333L128 512V213.333333l384-170.666666z m0 70.037333L191.978667 254.912 192 512c0 109.056 54.293333 208.277333 147.093333 292.544l7.210667 6.442667a654.250667 654.250667 0 0 0 118.186667 82.88c3.968 2.133333 7.850667 4.181333 11.626666 6.101333l10.986667 5.397333c7.04 3.349333 13.589333 6.186667 19.370667 8.448l5.504 2.026667 5.546666-2.026667a386.389333 386.389333 0 0 0 41.984-19.946666 654.378667 654.378667 0 0 0 118.186667-82.901334c94.741333-83.498667 151.424-182.058667 154.197333-290.602666L832 512l-0.021333-257.088L512 112.704zM512 256a192 192 0 0 1 192 192v64a191.125333 191.125333 0 0 1-35.498667 111.232l51.349334 51.349333-45.269334 45.269334-51.349333-51.349334A192 192 0 0 1 320 512v-64a192 192 0 0 1 192-192z m0 64a128 128 0 0 0-127.914667 123.2L384 448v64a128 128 0 0 0 193.024 110.293333l-53.290667-53.290666 45.269334-45.269334 53.269333 53.290667a127.296 127.296 0 0 0 17.642667-60.224L640 512v-64a128 128 0 0 0-128-128z" fill="#000000" p-id="24746"></path></svg>