<?xml version="1.0" standalone="no"?><!DOCTYPE svg PUBLIC "-//W3C//DTD SVG 1.1//EN" "http://www.w3.org/Graphics/SVG/1.1/DTD/svg11.dtd"><svg t="1705563832735" class="icon" viewBox="0 0 1024 1024" version="1.1" xmlns="http://www.w3.org/2000/svg" p-id="13070" xmlns:xlink="http://www.w3.org/1999/xlink" width="200" height="200"><path d="M512 81.92l372.736 215.04v430.08L512 942.08 139.264 727.04v-430.08L512 81.92m0-81.92c-14.336 0-28.672 4.096-40.96 10.24L98.304 225.28c-24.576 14.336-40.96 40.96-40.96 71.68v430.08c0 28.672 16.384 55.296 40.96 71.68L471.04 1013.76c12.288 8.192 26.624 10.24 40.96 10.24s28.672-4.096 40.96-10.24L925.696 798.72c24.576-14.336 40.96-40.96 40.96-71.68v-430.08c0-28.672-16.384-55.296-40.96-71.68L552.96 10.24c-12.288-6.144-26.624-10.24-40.96-10.24z" p-id="13071"></path><path d="M698.368 352.256L532.48 450.56c-12.288 8.192-28.672 8.192-43.008 0l-153.6-96.256c-18.432-12.288-45.056-6.144-57.344 12.288-12.288 18.432-6.144 45.056 12.288 57.344l157.696 98.304c12.288 8.192 18.432 20.48 18.432 34.816V757.76c0 22.528 18.432 40.96 40.96 40.96s40.96-18.432 40.96-40.96v-200.704c0-14.336 8.192-28.672 20.48-34.816l167.936-100.352c20.48-12.288 26.624-36.864 14.336-55.296-8.192-20.48-32.768-26.624-53.248-14.336z" p-id="13072"></path></svg>