<?xml version="1.0" standalone="no"?><!DOCTYPE svg PUBLIC "-//W3C//DTD SVG 1.1//EN" "http://www.w3.org/Graphics/SVG/1.1/DTD/svg11.dtd"><svg t="1705563605316" class="icon" viewBox="0 0 1024 1024" version="1.1" xmlns="http://www.w3.org/2000/svg" p-id="7647" xmlns:xlink="http://www.w3.org/1999/xlink" width="200" height="200"><path d="M512 292.571429c175.055238 0 316.952381 141.897143 316.952381 316.952381s-141.897143 316.952381-316.952381 316.95238S195.047619 784.579048 195.047619 609.52381s141.897143-316.952381 316.952381-316.952381z m0 146.285714a170.666667 170.666667 0 1 0 0 341.333333 170.666667 170.666667 0 0 0 0-341.333333z m0 73.142857a97.52381 97.52381 0 1 1 0 195.047619 97.52381 97.52381 0 0 1 0-195.047619zM768 109.714286a73.142857 73.142857 0 0 1 73.142857 73.142857v124.854857l-57.222095 57.246476a366.933333 366.933333 0 0 0-113.420191-85.089524L670.47619 146.285714h-73.142857v107.52A366.689524 366.689524 0 0 0 512 243.809524a366.689524 366.689524 0 0 0-85.333333 9.99619V146.285714h-73.142857v133.558857a366.933333 366.933333 0 0 0-113.444572 85.089524L182.857143 307.736381V182.857143a73.142857 73.142857 0 0 1 73.142857-73.142857h512z" fill="#b0b0b0" p-id="7648"></path></svg>